#!OML:ASF F:\VICON\USERDATA\INSTALL\rory3\rory3.ASF
:FULLY-SPECIFIED
:DEGREES
212
root 8.66995 17.7885 -0.200736 343.205 80.5067 345.11
lowerback 12.6572 1.49326 -3.69999
upperback 0.828352 1.51922 0.363801
thorax -6.33781 0.870019 2.19904
lowerneck -8.73636 -10.9537 -13.2879
upperneck 33.0466 -16.6645 13.3949
head 15.48 -6.94857 5.18378
rclavicle 1.44119e-014 -4.77083e-015
rhumerus -35.9399 -22.4058 -75.6085
rradius 32.2761
rwrist 7.64063
rhand -22.4248 9.03006
rfingers 7.12502
rthumb 3.99853 -20.9122
lclavicle 1.44119e-014 -4.77083e-015
lhumerus -32.6665 11.727 77.286
lradius 28.3944
lwrist -7.88558
lhand -16.1003 25.6302
lfingers 7.12502
lthumb 10.1033 55.3676
rfemur -14.6631 -5.9115 17.4288
rtibia 39.4862
rfoot -23.8851 3.53912
rtoes -13.0442
lfemur -9.11401 -5.2513 -19.7548
ltibia 31.1291
lfoot -15.3912 -3.11772
ltoes 1.35553
213
root 8.66795 17.8044 -0.166043 343.412 80.1812 345.32
lowerback 12.5998 1.50478 -3.65585
upperback 0.77978 1.54342 0.403876
thorax -6.359 0.881582 2.21259
lowerneck -8.67812 -11.0136 -13.4161
upperneck 33.1636 -16.722 13.3174
head 15.541 -6.99802 5.16767
rclavicle -1.799e-014 1.27222e-014
rhumerus -36.0842 -22.4014 -75.5684
rradius 31.9663
rwrist 8.13939
rhand -22.7035 8.99837
rfingers 7.12502
rthumb 3.72939 -20.9487
lclavicle -1.799e-014 1.27222e-014
lhumerus -32.7998 11.9736 77.0305
lradius 28.3244
lwrist -7.56449
lhand -15.8769 25.5487
lfingers 7.12502
lthumb 10.3189 55.2756
rfemur -14.444 -5.91348 16.962
rtibia 39.1445
rfoot -22.8667 1.80213
rtoes -10.1046
lfemur -8.87902 -5.38817 -19.6103
ltibia 30.8051
lfoot -15.2419 -2.60485
ltoes 0.581351
214
root 8.66736 17.8151 -0.131398 342.851 79.8372 344.859
lowerback 12.5814 1.48875 -3.54308
upperback 0.816339 1.54863 0.53982
thorax -6.311 0.881807 2.29239
lowerneck -8.7299 -11.0437 -13.7222
upperneck 33.2738 -16.7294 13.3599
head 15.6534 -7.03124 5.23953
rclavicle 2.66868e-014 -4.77083e-015
rhumerus -36.0828 -22.434 -75.4622
rradius 31.6031
rwrist 8.57126
rhand -22.6232 8.70933
rfingers 7.12502
rthumb 3.80698 -21.2364
lclavicle 2.66868e-014 -4.77083e-015
lhumerus -32.9194 12.8033 76.5985
lradius 28.2089
lwrist -8.51512
lhand -17.9791 26.708
lfingers 7.12502
lthumb 8.29047 56.5253
rfemur -14.1118 -5.9645 16.5983
rtibia 38.7917
rfoot -21.6396 0.365733
rtoes -6.67733
lfemur -8.52067 -5.40991 -19.3229
ltibia 30.4872
lfoot -15.117 -2.2958
ltoes 0.0261946
215
root 8.6665 17.8245 -0.097665 342.862 79.468 344.985
lowerback 12.5327 1.48256 -3.47925
upperback 0.901096 1.55869 0.615183
thorax -6.19479 0.883647 2.33588
lowerneck -8.89514 -11.0596 -13.7467
upperneck 33.3926 -16.7064 13.2245
head 15.7314 -7.03176 5.18594
rclavicle -2.59911e-014 1.07344e-014
rhumerus -35.9321 -22.4758 -75.3968
rradius 31.0914
rwrist 8.57642
rhand -22.3749 9.01307
rfingers 7.12502
rthumb 4.04676 -20.9282
lclavicle -2.59911e-014 1.07344e-014
lhumerus -32.9587 13.1277 76.4874
lradius 28.1601
lwrist -8.21824
lhand -18.4773 26.8236
lfingers 7.12502
lthumb 7.80967 56.6593
rfemur -13.7815 -5.97207 16.0969
rtibia 38.4497
rfoot -20.2036 -0.603423
rtoes -1.88675
lfemur -8.12761 -5.65711 -19.1775
ltibia 30.1719
lfoot -14.9184 -1.65759
ltoes -1.0769
216
root 8.66221 17.8362 -0.0651056 343.185 79.1687 345.326
lowerback 12.3428 1.43218 -3.46576
upperback 1.01074 1.50809 0.686952
thorax -5.97053 0.855086 2.41743
lowerneck -9.08302 -11.0535 -13.7586
upperneck 33.4331 -16.6439 13.0856
head 15.7654 -7.01721 5.13083
rclavicle -6.5102e-015 -6.75868e-015
rhumerus -35.8374 -23.0009 -75.1012
rradius 30.7232
rwrist 9.00404
rhand -22.2017 9.55617
rfingers 7.12502
rthumb 4.21396 -20.3819
lclavicle -6.5102e-015 -6.75868e-015
lhumerus -32.9131 12.8805 76.7592
lradius 28.2092
lwrist -6.46936
lhand -15.5048 25.6738
lfingers 7.12502
lthumb 10.6778 55.3825
rfemur -13.5238 -5.99109 15.5663
rtibia 38.1065
rfoot -18.555 -1.74883
rtoes 0.0628661
lfemur -7.90519 -5.73295 -19.0721
ltibia 29.8762
lfoot -14.751 -1.15155
ltoes -2.72715
217
root 8.65924 17.8463 -0.0321359 343.434 78.8498 345.564
lowerback 12.1533 1.41254 -3.41211
upperback 1.05556 1.50073 0.751198
thorax -5.81717 0.847961 2.45975
lowerneck -9.1437 -11.0327 -13.8179
upperneck 33.4567 -16.5844 13.0352
head 15.7798 -7.00429 5.12841
rclavicle -1.13804e-014 2.78299e-015
rhumerus -36.133 -24.1067 -74.5068
rradius 30.8161
rwrist 9.97628
rhand -22.0917 9.54446
rfingers 7.12502
rthumb 4.32025 -20.3915
lclavicle -1.13804e-014 2.78299e-015
lhumerus -32.9108 12.9438 76.8296
lradius 28.161
lwrist -5.60503
lhand -14.9886 25.8349
lfingers 7.12502
lthumb 11.1758 55.5172
rfemur -13.302 -5.83773 15.0539
rtibia 37.7506
rfoot -17.0289 -2.77657
rtoes 1.28797
lfemur -7.73001 -5.47478 -18.9106
ltibia 29.5797
lfoot -14.6775 -0.935359
ltoes -4.1602
218
root 8.65659 17.8526 0.00397075 343.655 78.4348 345.792
lowerback 12.0373 1.43446 -3.354
upperback 1.04353 1.54216 0.77585
thorax -5.76719 0.866195 2.44759
lowerneck -9.1117 -10.9816 -13.6386
upperneck 33.4223 -16.5252 12.963
head 15.7106 -6.96828 5.07812
rclavicle -3.98066e-014 8.74653e-015
rhumerus -36.4616 -24.671 -74.2286
rradius 30.9693
rwrist 10.2532
rhand -22.291 9.09704
rfingers 7.12502
rthumb 4.12773 -20.8427
lclavicle -3.98066e-014 8.74653e-015
lhumerus -32.9618 13.3068 76.5344
lradius 27.953
lwrist -6.11637
lhand -16.046 26.449
lfingers 7.12502
lthumb 10.1558 56.1839
rfemur -13.0839 -5.67863 14.509
rtibia 37.3509
rfoot -15.9062 -3.24322
rtoes 4.56862
lfemur -7.51042 -5.26653 -18.7031
ltibia 29.3011
lfoot -14.6018 -0.794524
ltoes -4.50043
219
root 8.65296 17.8595 0.043016 344.097 77.9854 346.23
lowerback 11.904 1.46651 -3.39899
upperback 1.02762 1.58558 0.833442
thorax -5.71562 0.888347 2.52847
lowerneck -9.11263 -10.9667 -13.4685
upperneck 33.4066 -16.487 12.794
head 15.6511 -6.95247 4.98074
rclavicle -1.78906e-014 -6.36111e-015
rhumerus -36.6346 -24.8584 -74.0579
rradius 30.9133
rwrist 10.0929
rhand -22.6653 8.88536
rfingers 7.12502
rthumb 3.76633 -21.0611
lclavicle -1.78906e-014 -6.36111e-015
lhumerus -33.0716 13.5298 76.2405
lradius 27.816
lwrist -6.95332
lhand -17.249 26.9622
lfingers 7.12502
lthumb 8.99509 56.7505
rfemur -12.8345 -5.43882 13.9221
rtibia 36.9062
rfoot -15.4447 -3.67944
rtoes 6.56847
lfemur -7.28752 -5.20676 -18.5325
ltibia 29.0496
lfoot -14.5198 -0.53726
ltoes -4.21545
220
root 8.64807 17.8701 0.0840212 343.912 77.6295 346.012
lowerback 11.7604 1.45208 -3.32256
upperback 1.0214 1.58532 0.912924
thorax -5.64231 0.886007 2.57149
lowerneck -9.05787 -10.9874 -13.4531
upperneck 33.3323 -16.5132 12.7519
head 15.5985 -6.97356 4.95159
rclavicle 1.50331e-014 6.36111e-015
rhumerus -36.8344 -25.1578 -73.8447
rradius 30.8715
rwrist 10.1028
rhand -22.8373 8.89744
rfingers 7.12502
rthumb 3.60023 -21.0519
lclavicle 1.50331e-014 6.36111e-015
lhumerus -33.1795 13.3121 76.2443
lradius 27.8156
lwrist -6.69396
lhand -19.1188 27.5948
lfingers 7.12502
lthumb 7.19049 57.4527
rfemur -12.5054 -5.13545 13.5062
rtibia 36.4515
rfoot -15.3999 -4.55381
rtoes 6.52168
lfemur -7.10031 -5.3243 -18.2388
ltibia 28.8033
lfoot -14.442 -0.277389
ltoes -3.49305
221
root 8.64172 17.8775 0.124558 344.004 77.3681 346.128
lowerback 11.7132 1.43073 -3.26451
upperback 1.00959 1.56695 0.937261
thorax -5.62621 0.875596 2.56809
lowerneck -8.95321 -11.0035 -13.5897
upperneck 33.2343 -16.5694 12.9112
head 15.5744 -7.0053 5.03266
rclavicle -7.05686e-015 8.34896e-015
rhumerus -37.0991 -25.5455 -73.6053
rradius 30.8799
rwrist 10.1556
rhand -22.7378 8.68442
rfingers 7.12502
rthumb 3.69635 -21.2633
lclavicle -7.05686e-015 8.34896e-015
lhumerus -33.2699 12.6204 76.5878
lradius 27.8469
lwrist -4.95085
lhand -18.2149 26.7021
lfingers 7.12502
lthumb 8.06291 56.5283
rfemur -12.1408 -4.96333 12.9513
rtibia 36.0388
rfoot -15.4066 -5.30903
rtoes 5.82435
lfemur -6.8591 -5.45881 -18.062
ltibia 28.5192
lfoot -14.2818 -0.0448113
ltoes -3.21408
222
root 8.63422 17.8798 0.165542 344.546 77.0853 346.751
lowerback 11.7663 1.4023 -3.27151
upperback 0.965875 1.52293 0.898905
thorax -5.69806 0.85498 2.53778
lowerneck -8.85531 -10.9719 -13.6309
upperneck 33.1782 -16.5867 13.0991
head 15.5573 -7.00305 5.12143
rclavicle -9.29318e-015 7.55382e-015
rhumerus -37.3827 -25.8757 -73.4342
rradius 30.8719
rwrist 9.95341
rhand -22.7651 8.40032
rfingers 7.12502
rthumb 3.66994 -21.5478
lclavicle -9.29318e-015 7.55382e-015
lhumerus -33.4607 13.2762 75.9103
lradius 27.6645
lwrist -7.18585
lhand -18.4275 27.5309
lfingers 7.12502
lthumb 7.85775 57.3649
rfemur -11.7852 -4.76023 12.2141
rtibia 35.6748
rfoot -15.4129 -5.55368
rtoes 7.36185
lfemur -6.56924 -5.35464 -18.0038
ltibia 28.1912
lfoot -14.0942 0.148649
ltoes -4.41826
223
root 8.6252 17.8873 0.207568 345.287 76.806 347.501
lowerback 11.774 1.39235 -3.39407
upperback 0.870492 1.48988 0.892073
thorax -5.80396 0.843875 2.60457
lowerneck -8.68775 -10.945 -13.5956
upperneck 33.1101 -16.5911 13.1715
head 15.4904 -7.00222 5.15109
rclavicle 1.1281e-014 -7.55382e-015
rhumerus -37.6786 -26.0649 -73.1892
rradius 30.8303
rwrist 9.53879
rhand -22.8864 8.17406
rfingers 7.12502
rthumb 3.55281 -21.7761
lclavicle 1.1281e-014 -7.55382e-015
lhumerus -33.6903 13.1749 75.7268
lradius 27.6093
lwrist -7.77625
lhand -17.8574 26.9922
lfingers 7.12502
lthumb 8.40796 56.8048
rfemur -11.5635 -4.71425 11.501
rtibia 35.3417
rfoot -15.1182 -5.71899
rtoes 8.33044
lfemur -6.35325 -5.25133 -17.9753
ltibia 27.8305
lfoot -13.9213 0.387909
ltoes -5.32043
224
root 8.61553 17.8983 0.251814 345.388 76.5825 347.684
lowerback 11.8272 1.39144 -3.45817
upperback 0.852039 1.48104 0.943584
thorax -5.85571 0.842877 2.69569
lowerneck -8.62305 -10.9936 -13.5208
upperneck 33.074 -16.671 13.1187
head 15.4571 -7.03778 5.09924
rclavicle 2.02512e-014 -7.15625e-015
rhumerus -37.9153 -26.2616 -72.9368
rradius 30.8178
rwrist 9.22347
rhand -22.9535 8.16896
rfingers 7.12502
rthumb 3.48799 -21.7822
lclavicle 2.02512e-014 -7.15625e-015
lhumerus -33.7914 12.8636 75.8509
lradius 27.588
lwrist -7.80514
lhand -18.4124 27.2423
lfingers 7.12502
lthumb 7.87235 57.0758
rfemur -11.2538 -4.99051 10.9705
rtibia 34.9958
rfoot -14.504 -6.11041
rtoes 7.68558
lfemur -6.03745 -5.256 -17.8032
ltibia 27.4684
lfoot -13.8018 0.479405
ltoes -5.07165
225
root 8.6066 17.9081 0.298457 345.102 76.2888 347.459
lowerback 11.8418 1.35755 -3.42649
upperback 0.880534 1.44806 1.06439
thorax -5.83376 0.826981 2.81087
lowerneck -8.76967 -11.0175 -13.5773
upperneck 33.1107 -16.6765 13.0603
head 15.5094 -7.04896 5.07567
rclavicle 1.61513e-014 0
rhumerus -37.9643 -26.369 -72.7614
rradius 30.7713
rwrist 9.08904
rhand -23.2648 8.01158
rfingers 7.12502
rthumb 3.1874 -21.9443
lclavicle 1.61513e-014 0
lhumerus -33.8501 12.68 76.003
lradius 27.5836
lwrist -7.91
lhand -18.3339 27.2692
lfingers 7.12502
lthumb 7.94804 57.0998
rfemur -10.9271 -5.0342 10.557
rtibia 34.6256
rfoot -13.683 -6.63498
rtoes 8.15675
lfemur -5.73362 -5.26245 -17.5266
ltibia 27.1471
lfoot -13.6762 0.791327
ltoes -5.85829
